<svg xmlns="http://www.w3.org/2000/svg" xmlns:xlink="http://www.w3.org/1999/xlink" version="1.1" x="0px" y="0px" viewBox="0 0 100 125" enable-background="new 0 0 100 100" xml:space="preserve"><path d="M43.456,83.437c0,0-22.884,1.326-17.688-26.863c0,0-0.774,8.732,10.391,12.602c0,0-6.301-5.416-5.748-12.602  c0.552-7.186,4.863-10.945,7.628-13.931c2.764-2.983,8.954-8.732,9.396-16.029s0-10.06,0-10.06s13.377,11.608,13.93,27.859  c0,0,0.664,5.527-2.874,10.834c0,0,9.839-2.102,5.639-16.141c0,0,11.606,16.251,10.834,25.648  c-0.775,9.396-6.079,16.823-18.131,18.692c0,0,5.307-1.558,5.196-8.742c-0.111-7.187-4.313-9.618-4.313-9.618  s0.774,6.191-2.542,6.191c0,0,0.994-1.66,0.994-5.75c0-4.089-4.931-10.061-6.169-10.28c0,0,1.417,4.312-1.79,8.4  c-3.206,4.091-7.959,8.07-2.653,13.598c0,0-3.869-0.993-4.312-4.643C41.245,72.603,39.365,79.567,43.456,83.437z"/></svg>
