<svg xmlns="http://www.w3.org/2000/svg" xmlns:xlink="http://www.w3.org/1999/xlink" version="1.1" x="0px" y="0px" viewBox="0 0 100 125" enable-background="new 0 0 100 100" xml:space="preserve">
  <path fill="#2CACE8" d="M72.922,34.248v2.722c-2.353-2.176-5.229-3.922-8.567-5.073c-0.602-0.208-1.223-0.397-1.849-0.566l-9.652-13.255  c-0.968-1.337-1.979-2.172-3.088-2.555c-2.064-0.713-3.91,0.365-5.122,1.24c-2.604,1.887-3.208,5.529-1.357,8.15l5.424,9.39  l-29.603,0.901c-4.444-0.012-6.475,2.771-6.482,5.359c-0.003,1.729,0.82,3.317,2.15,4.317l-0.319,0.005  c-2.952,0.008-5.357,2.412-5.363,5.366c-0.005,2.299,1.45,4.351,3.618,5.1c0.561,0.193,1.149,0.288,1.715,0.29l0.382,0.009  c-1.316,0.979-2.171,2.544-2.176,4.309c-0.003,2.295,1.453,4.339,3.626,5.091c0.558,0.191,1.142,0.294,1.723,0.297l5.24,0.074  c-1.275,0.981-2.099,2.521-2.103,4.247c-0.003,2.293,1.386,4.139,3.718,4.942c0.852,0.296,1.812,0.443,2.859,0.445l31.926,0.07  c4.97,0.011,9.635-1.938,13.3-5.482v3.772h17.983V34.248H72.922z M59.627,72.453l-31.926-0.07c-0.751-0.004-1.42-0.104-1.992-0.301  c-1.237-0.428-1.919-1.281-1.919-2.409c0.003-1.488,1.219-2.698,2.709-2.693c0.035-0.004,0.069-0.004,0.1-0.007l17.432-1.257  c0.107-0.007,0.208-0.031,0.31-0.063l-0.007,2.008c0,0.32,0.209,0.593,0.497,0.693c0.075,0.026,0.154,0.042,0.237,0.044  c0.406-0.002,0.733-0.327,0.735-0.735l0.013-5.451c0.001-0.404-0.327-0.733-0.732-0.737c-0.404-0.001-0.735,0.327-0.739,0.735v0.906  c-0.123-0.04-0.253-0.066-0.389-0.068l-25.948-0.375c-0.301-0.003-0.597-0.053-0.876-0.149c-1.094-0.378-1.826-1.405-1.825-2.563  c0.004-1.492,1.219-2.701,2.711-2.701c0.016,0.002,0.034,0.002,0.049-0.001l25.701-0.912c0.123-0.003,0.239-0.029,0.35-0.064  l-0.005,1.837c0,0.323,0.208,0.6,0.496,0.7c0.076,0.024,0.155,0.035,0.24,0.037c0.406,0.003,0.733-0.327,0.733-0.732l0.015-5.45  c0.001-0.405-0.328-0.738-0.734-0.737c-0.406-0.002-0.733,0.327-0.735,0.733l-0.003,1.075c-0.118-0.037-0.239-0.065-0.371-0.069  l-29.289-0.706c-0.301,0-0.596-0.049-0.876-0.146c-1.091-0.377-1.823-1.407-1.821-2.564c0.003-1.491,1.219-2.703,2.709-2.697  c0.014-0.003,0.032-0.001,0.046-0.003l29.209-0.924l-0.003,1.604c0,0.321,0.208,0.598,0.496,0.697  c0.074,0.025,0.155,0.038,0.236,0.04c0.407-0.001,0.739-0.33,0.739-0.736l0.013-5.449c0-0.406-0.327-0.734-0.734-0.737  c-0.408,0-0.735,0.327-0.737,0.735l-0.001,1.167L18,43.281c-0.303-0.004-0.598-0.051-0.878-0.147  c-1.094-0.378-1.826-1.408-1.823-2.565c0.003-1.666,1.462-2.699,3.848-2.696l31.523-0.957c0.382,4.027,2.255,15.541,11.153,18.613  c0.022,0.008,0.049,0.018,0.073,0.025c0.465,0.156,0.97-0.094,1.128-0.56c0.158-0.464-0.09-0.968-0.551-1.127  c-0.024-0.005-0.042-0.016-0.064-0.023c-9.45-3.263-10.053-18.219-10.056-18.371c-0.007-0.188-0.074-0.358-0.178-0.5  c-0.015-0.023-0.016-0.051-0.03-0.074l-6.577-11.381c-0.022-0.04-0.049-0.077-0.075-0.113c-1.036-1.432-0.714-3.441,0.716-4.477  c1.188-0.858,1.992-1.12,2.686-0.881c0.562,0.195,1.168,0.732,1.796,1.598l9.936,13.646c0.186,0.252,0.454,0.433,0.759,0.509  c0.709,0.177,1.416,0.386,2.098,0.621c3.942,1.362,7.125,3.578,9.439,6.383v24.745C69.705,69.771,64.944,72.464,59.627,72.453z"/></svg>
