<svg xmlns="http://www.w3.org/2000/svg" xmlns:xlink="http://www.w3.org/1999/xlink" version="1.1" x="0px" y="0px" viewBox="0 0 100 125" enable-background="new 0 0 100 100" xml:space="preserve"><g display="none"><rect x="-799.379" y="-323.883" display="inline" fill="#000000" width="1376.931" height="568.472"/></g><g><path d="M82.054,32.912l-5.452,5.452c-3.175-3.094-6.341-6.278-9.409-9.376c-1.445-1.46-2.892-2.917-4.342-4.371l5.454-5.454   l-1.865-1.864l-6.507,6.506l-21.106,4.772c-0.068,0.016-0.131,0.041-0.195,0.065c-0.018,0.007-0.037,0.011-0.054,0.018   c-0.174,0.073-0.327,0.178-0.458,0.304c-0.007,0.006-0.015,0.008-0.022,0.015L22.253,44.825l2.093,2.093   c1.273,1.273,2.881,2.004,4.543,2.209L17.604,60.412c-2.031,2.031-2.031,5.335-0.001,7.365l0.225,0.225   c0.56,0.56,1.222,0.951,1.922,1.202l-0.989,0.989c-0.981,0.981-1.521,2.289-1.521,3.683s0.54,2.702,1.521,3.682l0.225,0.225   c0.98,0.981,2.289,1.521,3.684,1.521c1.394,0,2.702-0.541,3.683-1.521l0.27-0.27c0.251,0.7,0.641,1.361,1.201,1.921l0.225,0.225   c1.016,1.016,2.35,1.523,3.683,1.523c1.334,0,2.668-0.508,3.684-1.523l0.629-0.629c0.255,0.716,0.65,1.377,1.202,1.929l0.227,0.227   c1.011,1.011,2.34,1.517,3.671,1.517c1.338,0,2.677-0.51,3.697-1.531l28.164-28.164c0.001-0.001,0.003-0.003,0.004-0.004   l0.223-0.223c0.032-0.032,0.044-0.074,0.072-0.109c0.018-0.022,0.039-0.04,0.057-0.064c0.024-0.03,0.052-0.068,0.082-0.114   c0.047-0.066,0.088-0.135,0.118-0.209c0,0,0-0.001,0.001-0.001c0.341-0.681,1.042-2.702,2.877-10.023l0.483-0.483   c0.235-0.072,0.457-0.195,0.64-0.384c0.167-0.173,0.27-0.379,0.338-0.594l6.023-6.023L82.054,32.912z M73.817,40.342l-0.275,1.127   c-1.328,5.301-2.299,8.663-2.606,9.361L47.092,74.673c-0.001,0.001-0.001,0.002-0.002,0.003l-4.373,4.373   c-0.865,0.866-2.267,0.873-3.126,0.014l-0.227-0.227c-0.415-0.416-0.643-0.971-0.642-1.565c0.002-0.594,0.232-1.151,0.649-1.568   l11.026-11.026l-0.003-0.003l-2.121-2.121L33.292,77.537c-0.861,0.861-2.264,0.861-3.123,0.001l-0.225-0.225   c-0.861-0.861-0.861-2.262,0-3.124l14.983-14.983l-2.121-2.121L24.23,75.661c-0.861,0.861-2.264,0.861-3.123,0.001l-0.225-0.226   c-0.414-0.414-0.643-0.968-0.643-1.561s0.229-1.147,0.643-1.562l4.311-4.311c0,0,0,0,0.001,0l11.324-11.325l2.939-2.94   l-2.121-2.121l-0.108,0.108l-2.832,2.832L23.072,65.881c-0.861,0.861-2.263,0.861-3.122,0l-0.225-0.225   c-0.414-0.415-0.643-0.969-0.643-1.562c0-0.593,0.229-1.147,0.643-1.562l15.53-15.53c0.031-0.03,0.064-0.055,0.094-0.085   l7.717-7.717c0.047,0.055,0.086,0.113,0.134,0.167c1.72,1.915,4.245,3.362,7.136,4.024c1.077,0.247,2.137,0.368,3.146,0.368   c2.072,0,3.927-0.511,5.251-1.492c0.681-0.504,0.824-1.466,0.32-2.147c-0.505-0.682-1.465-0.825-2.148-0.32   c-1.236,0.917-3.493,1.146-5.882,0.599c-2.35-0.539-4.354-1.703-5.642-3.211c-0.112-0.132-0.226-0.263-0.327-0.4   c0.077-0.461-0.036-0.948-0.392-1.304c-0.395-0.395-0.95-0.5-1.452-0.363c-0.259-0.01-0.524,0.039-0.771,0.167   c-0.433,0.227-0.706,0.633-0.79,1.079l-8.47,8.47c-1.857,1.807-4.831,1.808-6.683-0.012l13.418-13.418l20.789-4.7   c1.457,1.46,2.908,2.926,4.359,4.392c2.887,2.915,5.863,5.902,8.855,8.831C73.883,40.068,73.851,40.204,73.817,40.342z"/></g><text x="0" y="115" fill="#000000" font-size="5px" font-weight="bold" font-family="'Helvetica Neue', Helvetica, Arial-Unicode, Arial, Sans-serif">Created by Oksana Latysheva</text><text x="0" y="120" fill="#000000" font-size="5px" font-weight="bold" font-family="'Helvetica Neue', Helvetica, Arial-Unicode, Arial, Sans-serif">from the Noun Project</text></svg>