<svg xmlns="http://www.w3.org/2000/svg" xmlns:xlink="http://www.w3.org/1999/xlink" version="1.1" x="0px" y="0px" viewBox="0 0 100 125" style="enable-background:new 0 0 100 100;" xml:space="preserve"><g><g><path d="M50.4,48.9c6.1,0,11-4.9,11-11s-4.9-11-11-11c-6.1,0-11,4.9-11,11S44.3,48.9,50.4,48.9z M50.4,30.9c3.9,0,7,3.2,7,7    s-3.2,7-7,7s-7-3.2-7-7S46.5,30.9,50.4,30.9z"/><path d="M50.4,52.9c-3.4,0-6.2,2.8-6.2,6.2c0,3.4,2.8,6.2,6.2,6.2s6.2-2.8,6.2-6.2C56.6,55.7,53.8,52.9,50.4,52.9z M50.4,61.3    c-1.2,0-2.2-1-2.2-2.2c0-1.2,1-2.2,2.2-2.2c1.2,0,2.2,1,2.2,2.2C52.6,60.3,51.6,61.3,50.4,61.3z"/><path d="M17.6,68.9v19.7c0,1.5,0.7,2.9,1.9,3.8c0.8,0.6,1.8,0.9,2.8,0.9c0.5,0,1-0.1,1.4-0.2l8.3-2.6c0.7,1.7,2.4,2.9,4.2,2.9    h28.4c1.9,0,3.5-1.2,4.2-2.9l8.3,2.6c0.5,0.1,0.9,0.2,1.4,0.2c1,0,1.9-0.3,2.8-0.9c1.2-0.9,1.9-2.3,1.9-3.8V68.9    c0-2.4-1.2-4.7-3.1-6.1l-6.2-4.4l0.8-5.5l0-0.1c1-10-1.5-20.1-7-28.6l-9-13.7c-1.8-2.8-5-4.5-8.3-4.5c0,0,0,0,0,0    C47,6,43.9,7.6,42,10.4l-8.7,13.1c-5.6,8.5-8.2,18.7-7.2,28.8l0.9,6.1l-6.3,4.5C18.8,64.2,17.6,66.5,17.6,68.9z M77.8,66.1    c0.9,0.6,1.5,1.7,1.5,2.8v19.7c0,0.3-0.2,0.5-0.3,0.6c-0.1,0.1-0.3,0.2-0.6,0.1l-8.7-2.7l3.6-23.7L77.8,66.1z M36.7,25.7l8.7-13.1    c1.1-1.7,2.9-2.7,5-2.7c0,0,0,0,0,0c2,0,3.9,1,5,2.7l9,13.7c5,7.6,7.3,16.8,6.4,25.9l-0.5,3.5l0,0l-5,33c0,0.3-0.3,0.5-0.6,0.5    H36.2c-0.3,0-0.5-0.2-0.6-0.5l-4.9-33.1l0,0l-0.6-3.9C29.3,42.7,31.6,33.4,36.7,25.7z M21.6,68.9c0-1.1,0.5-2.2,1.5-2.8l4.6-3.3    l3.5,23.7l-8.7,2.7c-0.3,0.1-0.5,0-0.6-0.1c-0.1-0.1-0.3-0.3-0.3-0.6V68.9z"/></g></g></svg>
